# xmcd
#
# Track frame offsets: 
#        150
#        12719
#        25997
#        38992
#        50765
#        60346
#        76837
#        91312
#        108082
#        117048
#        129219
#        137524
#        145083
#        154905
#        168656
#        185469
#        195992
#        211444
#        221102
#        230537
#
# Disc length: 3259 seconds
#
# Revision: 5
# Processed by: cddbd v1.5.2PL0 Copyright (c) Steve Scherf et al.
# Submitted via: ExactAudioCopy v1.0b3
#
DISCID=120cb914
DTITLE=Caterina Valente - In London
DYEAR=2004
DGENRE=Jazz
TTITLE0=Come, fly with me
TTITLE1=My funny Valentine
TTITLE2=I've got you under my skin
TTITLE3=Never will I marry
TTITLE4=Couci Cousa
TTITLE5=I hadn't anyone till you
TTITLE6=Take the "A" train
TTITLE7=Autumn in New York
TTITLE8=Falling in love with love
TTITLE9=Stella by starlight
TTITLE10=Whispering
TTITLE11=Blue moon
TTITLE12=Hindustan
TTITLE13=Love walked in
TTITLE14=Something's comin'
TTITLE15=Lullaby of Broadway
TTITLE16=Chinatown, my Chinatown
TTITLE17=There will never be another you
TTITLE18=Cherokee
TTITLE19=Yours
EXTD=
EXTT0=
EXTT1=
EXTT2=
EXTT3=
EXTT4=
EXTT5=
EXTT6=
EXTT7=
EXTT8=
EXTT9=
EXTT10=
EXTT11=
EXTT12=
EXTT13=
EXTT14=
EXTT15=
EXTT16=
EXTT17=
EXTT18=
EXTT19=
PLAYORDER=
